<svg id="svg" version="1.1" xmlns="http://www.w3.org/2000/svg" xmlns:xlink="http://www.w3.org/1999/xlink" width="400" height="400" viewBox="0, 0, 400,400"><g id="svgg"><path id="path0" d="M95.400 236.327 C 86.432 243.158,80.533 247.721,66.600 258.602 C 60.440 263.412,53.420 268.875,51.000 270.741 C 48.580 272.606,45.676 274.868,44.547 275.766 C 41.756 277.988,36.405 282.131,35.851 282.500 C 35.517 282.722,35.518 282.878,35.855 283.100 C 36.105 283.265,36.607 284.114,36.971 284.986 C 37.334 285.858,37.762 286.668,37.922 286.786 C 38.081 286.904,38.815 288.170,39.553 289.600 C 40.290 291.030,41.007 292.290,41.146 292.400 C 41.286 292.510,41.716 293.284,42.103 294.120 C 42.490 294.957,42.988 295.857,43.209 296.120 C 44.026 297.094,45.600 299.647,45.600 299.998 C 45.600 300.197,45.825 300.504,46.100 300.680 C 46.375 300.856,46.946 301.630,47.370 302.400 C 47.793 303.170,48.243 303.890,48.370 304.000 C 48.496 304.110,49.221 305.100,49.979 306.200 C 50.738 307.300,51.478 308.290,51.624 308.400 C 51.769 308.510,52.177 309.163,52.529 309.852 C 52.882 310.540,53.447 311.209,53.785 311.339 C 54.123 311.469,54.400 311.844,54.400 312.173 C 54.400 312.503,54.760 312.965,55.200 313.200 C 55.640 313.435,56.000 313.883,56.000 314.194 C 56.000 314.506,56.225 314.904,56.500 315.080 C 56.775 315.256,57.720 316.298,58.600 317.395 C 59.480 318.493,60.470 319.691,60.800 320.059 C 61.130 320.426,62.480 321.950,63.800 323.444 C 68.866 329.180,78.182 338.062,83.187 341.929 C 83.950 342.518,84.873 343.270,85.239 343.600 C 85.605 343.930,86.375 344.560,86.949 345.000 C 87.522 345.440,88.453 346.205,89.017 346.700 C 89.580 347.195,90.186 347.600,90.362 347.600 C 90.539 347.600,91.204 348.055,91.842 348.611 C 93.227 349.821,93.175 349.783,96.197 351.800 C 97.516 352.680,98.822 353.613,99.100 353.874 C 99.377 354.134,99.964 354.462,100.402 354.601 C 100.841 354.740,101.200 355.010,101.200 355.201 C 101.200 355.392,101.830 355.776,102.600 356.054 C 103.370 356.333,104.000 356.677,104.000 356.820 C 104.000 356.962,104.720 357.403,105.600 357.800 C 106.480 358.197,107.200 358.660,107.200 358.830 C 107.200 358.999,107.830 359.346,108.600 359.600 C 109.370 359.854,110.000 360.194,110.000 360.356 C 110.000 360.518,110.630 360.898,111.400 361.200 C 112.170 361.502,112.800 361.860,112.800 361.996 C 112.800 362.131,113.700 362.566,114.800 362.961 C 115.900 363.357,116.800 363.814,116.800 363.977 C 116.800 364.140,117.520 364.489,118.400 364.753 C 119.280 365.016,120.000 365.376,120.000 365.552 C 120.000 365.728,120.720 366.110,121.600 366.400 C 122.480 366.690,123.200 367.060,123.200 367.221 C 123.200 367.382,123.689 367.636,124.287 367.786 C 124.885 367.936,126.294 368.494,127.417 369.026 C 128.541 369.557,130.032 370.106,130.730 370.246 C 131.429 370.386,132.000 370.638,132.000 370.807 C 132.000 370.975,132.489 371.236,133.086 371.386 C 133.683 371.536,134.898 371.989,135.786 372.393 C 136.674 372.797,138.075 373.254,138.900 373.408 C 139.725 373.563,140.400 373.834,140.400 374.011 C 140.400 374.188,141.840 374.644,143.600 375.024 C 145.360 375.405,146.800 375.849,146.800 376.013 C 146.800 376.176,148.015 376.536,149.500 376.813 C 150.985 377.090,152.297 377.465,152.415 377.645 C 152.534 377.826,153.974 378.198,155.615 378.472 C 157.257 378.746,158.695 379.103,158.811 379.265 C 158.928 379.428,161.268 379.879,164.011 380.269 C 166.755 380.659,169.091 381.103,169.203 381.255 C 169.314 381.408,171.654 381.742,174.403 381.997 C 177.151 382.253,179.832 382.673,180.361 382.931 C 181.709 383.589,219.865 383.598,221.239 382.940 C 221.768 382.688,224.720 382.260,227.800 381.990 C 230.880 381.720,233.490 381.380,233.600 381.234 C 233.710 381.089,236.049 380.647,238.798 380.253 C 241.547 379.858,243.977 379.399,244.198 379.232 C 244.419 379.064,245.950 378.698,247.600 378.417 C 249.250 378.137,250.780 377.765,251.000 377.591 C 251.220 377.417,252.525 377.055,253.900 376.786 C 255.275 376.516,256.400 376.172,256.400 376.021 C 256.400 375.870,257.550 375.518,258.956 375.239 C 260.362 374.959,261.956 374.500,262.498 374.219 C 263.040 373.938,264.410 373.485,265.542 373.214 C 266.674 372.942,267.600 372.576,267.600 372.400 C 267.600 372.224,268.500 371.864,269.600 371.600 C 270.700 371.336,271.600 370.981,271.600 370.810 C 271.600 370.640,272.171 370.386,272.870 370.246 C 273.568 370.106,275.053 369.565,276.170 369.043 C 280.653 366.946,282.843 366.000,283.212 366.000 C 283.425 366.000,283.600 365.849,283.600 365.664 C 283.600 365.479,284.320 365.090,285.200 364.800 C 286.080 364.510,286.800 364.145,286.800 363.990 C 286.800 363.835,287.610 363.399,288.600 363.021 C 289.590 362.643,290.400 362.196,290.400 362.028 C 290.400 361.859,291.075 361.420,291.900 361.052 C 293.979 360.124,295.707 359.151,296.263 358.594 C 296.521 358.336,297.287 357.895,297.966 357.614 C 298.645 357.333,299.200 356.945,299.200 356.751 C 299.200 356.558,299.396 356.400,299.635 356.400 C 300.064 356.400,303.291 354.267,304.323 353.300 C 304.617 353.025,305.000 352.800,305.174 352.800 C 305.505 352.800,308.147 350.854,309.234 349.809 C 309.582 349.474,310.071 349.200,310.319 349.200 C 310.568 349.200,310.965 348.840,311.200 348.400 C 311.435 347.960,311.882 347.600,312.191 347.600 C 312.501 347.600,312.990 347.282,313.277 346.893 C 313.565 346.504,314.250 345.887,314.800 345.522 C 315.350 345.157,316.454 344.260,317.253 343.529 C 318.053 342.798,319.354 341.660,320.145 341.000 C 320.936 340.340,321.587 339.671,321.591 339.514 C 321.596 339.357,315.975 334.870,309.100 329.544 C 302.225 324.217,294.800 318.454,292.600 316.735 C 286.198 311.735,279.591 306.609,270.800 299.823 C 266.290 296.341,262.400 293.247,262.156 292.946 C 261.552 292.203,260.140 292.782,257.769 294.745 C 257.532 294.942,256.948 295.226,256.472 295.377 C 255.995 295.529,255.379 295.874,255.102 296.144 C 254.514 296.719,248.598 299.600,248.005 299.600 C 247.782 299.600,247.600 299.781,247.600 300.002 C 247.600 300.222,246.790 300.620,245.800 300.884 C 244.810 301.149,244.000 301.489,244.000 301.639 C 244.000 301.788,242.830 302.228,241.400 302.615 C 239.970 303.002,238.800 303.443,238.800 303.596 C 238.800 303.748,237.765 304.101,236.500 304.381 C 235.235 304.660,234.020 305.032,233.800 305.207 C 233.580 305.382,232.230 305.751,230.800 306.027 C 229.370 306.303,228.110 306.656,228.000 306.813 C 227.809 307.083,220.400 308.366,214.000 309.237 C 210.022 309.778,191.346 309.792,187.800 309.257 C 181.244 308.268,174.986 307.096,174.800 306.823 C 174.690 306.661,173.450 306.306,172.045 306.033 C 170.640 305.761,169.200 305.375,168.845 305.175 C 168.253 304.843,167.051 304.412,161.400 302.507 C 160.300 302.136,159.340 301.690,159.267 301.516 C 159.193 301.342,158.940 301.200,158.703 301.200 C 158.249 301.200,149.142 296.807,148.800 296.423 C 148.690 296.300,148.060 295.929,147.400 295.599 C 146.740 295.270,146.020 294.857,145.800 294.683 C 145.580 294.508,144.410 293.745,143.200 292.986 C 140.000 290.980,139.591 290.695,138.485 289.700 C 137.934 289.205,137.357 288.800,137.203 288.800 C 137.049 288.800,136.549 288.485,136.092 288.100 C 135.635 287.715,134.685 286.950,133.982 286.400 C 133.278 285.850,132.050 284.816,131.251 284.102 C 130.453 283.388,128.900 282.046,127.800 281.119 C 126.072 279.663,122.695 276.096,118.680 271.486 C 118.064 270.779,117.029 269.609,116.380 268.888 C 115.731 268.166,115.193 267.446,115.184 267.288 C 115.175 267.129,114.635 266.377,113.984 265.615 C 113.333 264.853,112.800 264.007,112.800 263.735 C 112.800 263.463,112.568 263.096,112.285 262.920 C 112.001 262.744,111.196 261.700,110.495 260.600 C 109.794 259.500,109.061 258.409,108.865 258.175 C 108.669 257.941,108.176 257.041,107.770 256.175 C 107.363 255.309,106.799 254.362,106.515 254.071 C 106.232 253.781,106.000 253.295,106.000 252.991 C 106.000 252.688,105.755 252.296,105.457 252.120 C 105.158 251.944,104.694 251.125,104.426 250.300 C 104.157 249.475,103.801 248.800,103.633 248.800 C 103.465 248.800,103.082 248.035,102.781 247.100 C 102.480 246.165,101.822 244.564,101.317 243.542 C 100.813 242.520,100.400 241.395,100.400 241.042 C 100.400 240.689,100.238 240.400,100.040 240.400 C 99.842 240.400,99.464 239.500,99.200 238.400 C 98.936 237.300,98.558 236.400,98.360 236.400 C 98.162 236.400,98.000 236.040,98.000 235.600 C 98.000 234.495,97.692 234.581,95.400 236.327 " stroke="none" fill="#34ab54" fill-rule="evenodd"></path><path id="path1" d="M199.600 202.157 C 199.600 234.202,199.665 237.939,200.225 238.154 C 200.568 238.286,222.818 238.398,249.669 238.403 C 288.741 238.411,298.405 238.513,298.072 238.914 C 297.843 239.189,297.444 240.627,297.186 242.109 C 296.928 243.591,296.553 244.906,296.352 245.030 C 296.151 245.154,296.095 245.431,296.228 245.645 C 296.360 245.860,296.297 246.252,296.087 246.518 C 295.876 246.783,295.585 247.662,295.439 248.471 C 295.294 249.280,294.984 250.005,294.750 250.083 C 294.517 250.161,294.298 250.714,294.263 251.312 C 294.228 251.910,294.065 252.400,293.900 252.400 C 293.735 252.400,293.600 252.730,293.600 253.133 C 293.600 253.537,293.467 253.999,293.305 254.162 C 293.143 254.324,293.001 254.669,292.991 254.928 C 292.970 255.432,291.549 258.466,291.178 258.800 C 290.605 259.316,289.262 262.577,289.479 262.928 C 289.614 263.146,289.546 263.214,289.329 263.080 C 289.113 262.946,288.694 263.451,288.399 264.201 C 288.105 264.952,287.613 265.663,287.307 265.781 C 287.000 265.898,286.861 266.176,286.998 266.397 C 287.135 266.619,287.069 266.800,286.851 266.800 C 286.632 266.800,286.331 267.188,286.180 267.662 C 286.030 268.137,285.451 268.947,284.895 269.462 C 284.338 269.978,284.103 270.400,284.372 270.400 C 284.641 270.400,284.300 270.872,283.614 271.450 C 282.928 272.027,282.447 272.581,282.547 272.680 C 282.646 272.779,282.159 273.458,281.464 274.188 C 279.802 275.932,278.994 276.926,278.913 277.325 C 278.876 277.503,278.121 278.333,277.234 279.168 C 276.347 280.004,275.736 280.803,275.877 280.944 C 276.018 281.085,275.833 281.200,275.467 281.200 C 275.100 281.200,274.800 281.474,274.800 281.810 C 274.800 282.145,274.395 282.574,273.900 282.763 C 273.405 282.952,272.055 284.037,270.900 285.175 C 269.745 286.313,268.800 287.122,268.800 286.973 C 268.800 286.824,268.532 286.924,268.204 287.196 C 267.877 287.468,267.707 287.850,267.828 288.045 C 267.949 288.240,267.774 288.400,267.441 288.400 C 267.108 288.400,266.062 289.119,265.117 289.998 C 264.173 290.876,263.094 291.696,262.720 291.818 C 261.964 292.066,263.261 294.000,264.183 294.000 C 264.425 294.000,264.898 294.315,265.236 294.700 C 265.574 295.085,266.450 295.850,267.183 296.400 C 267.917 296.950,269.910 298.480,271.612 299.800 C 273.315 301.120,278.801 305.350,283.804 309.200 C 288.807 313.050,293.330 316.560,293.854 317.000 C 294.379 317.440,295.211 318.112,295.704 318.494 C 298.510 320.666,299.584 321.481,300.587 322.200 C 301.201 322.640,302.132 323.360,302.656 323.800 C 303.180 324.240,304.011 324.909,304.504 325.286 C 305.477 326.032,308.485 328.407,309.854 329.511 C 310.323 329.890,311.208 330.560,311.820 331.000 C 312.433 331.440,314.028 332.659,315.367 333.708 C 316.705 334.757,318.213 335.927,318.718 336.308 C 319.223 336.689,320.168 337.489,320.818 338.086 L 322.000 339.173 322.646 338.186 C 323.001 337.644,323.496 337.200,323.746 337.199 C 324.206 337.198,329.600 331.846,329.600 331.390 C 329.600 330.983,330.711 330.000,331.171 330.000 C 331.407 330.000,331.600 329.814,331.600 329.587 C 331.600 329.359,332.095 328.666,332.700 328.047 C 334.646 326.055,337.200 322.864,337.200 322.426 C 337.200 322.192,337.441 322.000,337.736 322.000 C 338.030 322.000,338.477 321.550,338.727 321.000 C 338.978 320.450,339.386 320.000,339.634 320.000 C 339.897 320.000,339.975 319.712,339.822 319.312 C 339.676 318.934,339.685 318.751,339.840 318.907 C 340.179 319.245,342.000 316.877,342.000 316.099 C 342.000 315.798,342.145 315.642,342.321 315.751 C 342.498 315.860,343.080 315.241,343.616 314.375 C 344.151 313.509,344.737 312.800,344.918 312.800 C 345.099 312.800,345.144 312.632,345.017 312.428 C 344.891 312.223,344.973 311.940,345.200 311.800 C 345.779 311.442,349.600 305.727,349.600 305.218 C 349.600 304.988,349.780 304.800,350.000 304.800 C 350.220 304.800,350.400 304.440,350.400 304.000 C 350.400 303.560,350.580 303.200,350.800 303.200 C 351.020 303.200,351.200 303.022,351.200 302.805 C 351.200 302.587,351.515 302.041,351.900 301.592 C 352.285 301.142,352.624 300.645,352.654 300.487 C 352.853 299.423,353.352 298.400,353.670 298.400 C 353.878 298.400,353.936 298.220,353.800 298.000 C 353.664 297.780,353.773 297.600,354.043 297.600 C 354.313 297.600,354.418 297.485,354.278 297.344 C 354.137 297.204,354.468 296.559,355.014 295.911 C 355.559 295.263,355.904 294.568,355.779 294.366 C 355.655 294.165,355.773 294.000,356.043 294.000 C 356.313 294.000,356.413 293.880,356.266 293.732 C 356.119 293.585,356.254 293.180,356.568 292.832 C 356.881 292.485,357.196 291.930,357.268 291.600 C 357.341 291.270,357.530 290.902,357.690 290.783 C 357.849 290.663,358.043 290.153,358.120 289.650 C 358.196 289.146,358.511 288.579,358.818 288.389 C 359.125 288.199,359.253 287.920,359.103 287.769 C 358.952 287.618,359.092 287.119,359.414 286.658 C 359.736 286.198,360.000 285.491,360.000 285.087 C 360.000 284.683,360.161 284.452,360.357 284.574 C 360.554 284.695,360.837 284.307,360.987 283.711 C 361.136 283.115,361.605 281.866,362.029 280.936 C 362.453 280.005,362.800 279.048,362.800 278.809 C 362.800 278.569,363.235 277.514,363.767 276.465 C 364.299 275.415,364.859 273.891,365.012 273.078 C 365.164 272.265,365.460 271.600,365.670 271.600 C 365.879 271.600,366.012 271.285,365.965 270.900 C 365.850 269.955,366.886 266.406,367.217 266.610 C 367.362 266.700,367.789 265.204,368.167 263.287 C 368.544 261.369,369.052 259.440,369.295 259.000 C 369.683 258.298,370.572 254.940,370.990 252.600 C 371.069 252.160,371.162 251.800,371.197 251.800 C 371.286 251.800,371.480 250.748,371.757 248.770 C 371.886 247.847,372.190 246.852,372.434 246.560 C 372.677 246.267,372.793 245.796,372.692 245.513 C 372.591 245.231,372.653 244.716,372.831 244.370 C 373.008 244.023,373.248 242.565,373.364 241.131 C 373.479 239.696,373.764 238.019,373.998 237.405 C 374.231 236.791,374.339 236.206,374.237 236.103 C 374.135 236.001,374.215 235.486,374.416 234.959 C 374.677 234.271,374.642 233.998,374.290 233.994 C 373.977 233.990,373.947 233.882,374.209 233.694 C 374.433 233.532,374.668 232.860,374.731 232.200 C 374.793 231.540,374.916 230.460,375.004 229.800 C 375.093 229.140,375.287 226.440,375.437 223.800 C 375.587 221.160,375.887 218.775,376.104 218.500 C 376.372 218.160,376.347 218.000,376.025 218.000 C 375.741 218.000,375.682 217.800,375.876 217.500 C 376.387 216.712,376.339 193.201,375.828 193.194 C 375.592 193.191,375.650 193.030,375.955 192.836 C 376.340 192.593,376.422 192.135,376.223 191.343 C 376.065 190.714,375.777 188.220,375.582 185.800 C 375.388 183.380,375.119 180.590,374.985 179.600 C 374.851 178.610,374.730 177.530,374.716 177.200 C 374.702 176.870,374.490 176.340,374.245 176.023 C 373.906 175.583,373.919 175.518,374.300 175.747 C 374.575 175.912,374.800 175.867,374.800 175.647 C 374.800 175.427,374.644 175.151,374.454 175.033 C 374.264 174.916,374.180 174.171,374.267 173.378 C 374.369 172.455,374.278 172.028,374.013 172.192 C 373.756 172.351,373.583 171.797,373.554 170.724 C 373.528 169.776,373.466 168.820,373.415 168.600 C 373.364 168.380,373.294 167.795,373.261 167.300 L 373.200 166.400 286.400 166.400 L 199.600 166.400 199.600 202.157 " stroke="none" fill="#4484f4" fill-rule="evenodd"></path><path id="path2" d="M35.146 119.000 C 34.867 119.770,34.495 120.400,34.320 120.400 C 34.144 120.400,34.000 120.611,34.000 120.868 C 34.000 121.126,33.482 122.431,32.850 123.768 C 30.587 128.552,30.043 129.815,29.780 130.900 C 29.633 131.505,29.382 132.000,29.221 132.000 C 29.060 132.000,28.690 132.990,28.400 134.200 C 28.110 135.410,27.739 136.400,27.576 136.400 C 27.413 136.400,27.064 137.301,26.800 138.401 C 26.536 139.502,26.177 140.490,26.004 140.598 C 25.830 140.705,25.374 142.099,24.989 143.696 C 24.605 145.293,24.151 146.780,23.981 147.000 C 23.810 147.220,23.439 148.525,23.155 149.900 C 22.872 151.275,22.521 152.400,22.377 152.400 C 22.232 152.400,21.881 153.795,21.598 155.500 C 21.315 157.205,20.951 158.780,20.789 159.000 C 20.447 159.466,19.200 166.620,19.200 168.116 C 19.200 168.676,19.032 169.193,18.826 169.267 C 18.620 169.340,18.244 171.740,17.990 174.600 C 17.736 177.460,17.319 180.232,17.064 180.761 C 16.407 182.120,16.407 217.880,17.064 219.239 C 17.319 219.768,17.736 222.540,17.990 225.400 C 18.244 228.260,18.620 230.660,18.826 230.733 C 19.032 230.807,19.200 231.324,19.200 231.884 C 19.200 233.380,20.447 240.534,20.789 241.000 C 20.951 241.220,21.315 242.795,21.598 244.500 C 21.881 246.205,22.232 247.600,22.377 247.600 C 22.521 247.600,22.872 248.725,23.155 250.100 C 23.439 251.475,23.810 252.780,23.981 253.000 C 24.151 253.220,24.605 254.707,24.989 256.304 C 25.374 257.901,25.830 259.295,26.004 259.402 C 26.177 259.510,26.536 260.498,26.800 261.599 C 27.064 262.699,27.413 263.600,27.576 263.600 C 27.739 263.600,28.110 264.590,28.400 265.800 C 28.690 267.010,29.060 268.000,29.221 268.000 C 29.382 268.000,29.633 268.495,29.780 269.100 C 29.927 269.705,30.419 271.010,30.874 272.000 C 32.285 275.073,35.696 282.192,35.830 282.345 C 35.945 282.477,38.913 280.235,44.542 275.766 C 45.674 274.868,48.580 272.606,51.000 270.741 C 53.420 268.875,60.440 263.412,66.600 258.602 C 81.074 247.299,89.806 240.550,95.500 236.265 C 96.655 235.396,97.600 234.520,97.600 234.320 C 97.600 233.534,96.673 230.180,96.361 229.835 C 96.179 229.635,95.808 228.150,95.537 226.535 C 95.266 224.921,94.922 223.600,94.773 223.600 C 94.625 223.600,94.276 221.845,93.998 219.700 C 93.721 217.555,93.350 215.616,93.174 215.392 C 91.899 213.763,91.899 186.237,93.174 184.608 C 93.350 184.384,93.721 182.445,93.998 180.300 C 94.276 178.155,94.625 176.400,94.773 176.400 C 94.922 176.400,95.270 175.054,95.547 173.408 C 95.823 171.763,96.188 170.331,96.357 170.227 C 96.854 169.919,97.708 165.546,97.338 165.199 C 97.152 165.025,93.310 162.019,88.800 158.520 C 84.290 155.021,74.120 147.129,66.200 140.982 C 58.280 134.835,50.868 129.084,49.728 128.203 C 33.742 115.835,35.816 117.145,35.146 119.000 " stroke="none" fill="#fbbb04" fill-rule="evenodd"></path><path id="path3" d="M183.600 16.660 C 182.170 16.743,180.640 16.975,180.200 17.175 C 179.760 17.374,177.151 17.747,174.403 18.003 C 171.654 18.258,169.314 18.594,169.203 18.749 C 169.091 18.904,166.751 19.353,164.002 19.747 C 161.253 20.142,158.823 20.601,158.602 20.768 C 158.381 20.935,156.895 21.309,155.300 21.600 C 153.705 21.890,152.400 22.251,152.400 22.400 C 152.400 22.550,151.140 22.897,149.600 23.172 C 148.060 23.447,146.800 23.812,146.800 23.982 C 146.800 24.152,145.675 24.520,144.300 24.799 C 142.925 25.079,141.260 25.546,140.600 25.836 C 139.491 26.324,138.560 26.675,134.200 28.245 C 133.320 28.562,132.240 28.989,131.800 29.193 C 130.612 29.744,127.830 30.921,127.600 30.970 C 127.490 30.993,127.220 31.121,127.000 31.254 C 126.780 31.386,125.880 31.725,125.000 32.005 C 124.120 32.286,123.310 32.625,123.200 32.758 C 122.853 33.177,117.824 35.600,117.300 35.600 C 117.025 35.600,116.800 35.762,116.800 35.960 C 116.800 36.158,115.900 36.643,114.800 37.039 C 113.700 37.434,112.800 37.869,112.800 38.004 C 112.800 38.140,112.170 38.498,111.400 38.800 C 110.630 39.102,110.000 39.484,110.000 39.649 C 110.000 39.813,109.370 40.176,108.600 40.454 C 107.830 40.733,107.200 41.077,107.200 41.220 C 107.200 41.362,106.480 41.803,105.600 42.200 C 104.720 42.597,104.000 43.041,104.000 43.186 C 104.000 43.332,103.370 43.698,102.600 44.000 C 101.830 44.302,101.200 44.684,101.200 44.848 C 101.200 45.012,100.841 45.260,100.402 45.399 C 99.964 45.538,99.377 45.866,99.100 46.126 C 98.822 46.387,97.516 47.320,96.197 48.200 C 93.172 50.219,93.266 50.149,91.611 51.591 C 90.847 52.256,90.052 52.800,89.844 52.800 C 89.637 52.800,89.182 53.065,88.834 53.389 C 87.047 55.048,85.594 56.280,84.573 57.000 C 82.866 58.203,80.666 60.112,80.077 60.900 C 79.790 61.285,79.410 61.600,79.234 61.600 C 78.556 61.600,69.364 70.514,64.600 75.793 C 63.060 77.499,61.440 79.291,61.000 79.774 C 60.245 80.603,57.493 83.963,56.606 85.138 C 56.383 85.433,55.795 86.084,55.300 86.584 C 54.805 87.083,54.400 87.625,54.400 87.788 C 54.400 88.087,52.409 90.736,51.104 92.175 C 50.717 92.602,50.400 93.187,50.400 93.475 C 50.400 93.764,50.228 94.000,50.019 94.000 C 49.809 94.000,49.339 94.630,48.973 95.400 C 48.608 96.170,48.171 96.800,48.003 96.800 C 47.835 96.800,47.473 97.340,47.200 98.000 C 46.927 98.660,46.556 99.200,46.377 99.200 C 46.198 99.200,45.824 99.830,45.546 100.600 C 45.267 101.370,44.913 102.000,44.759 102.000 C 44.462 102.000,43.034 104.201,42.034 106.200 C 41.704 106.860,41.336 107.490,41.217 107.600 C 40.849 107.939,39.637 110.122,38.941 111.700 C 38.577 112.525,38.155 113.200,38.003 113.200 C 37.852 113.200,37.490 113.923,37.198 114.806 C 36.907 115.689,36.431 116.609,36.140 116.850 C 35.727 117.192,36.417 117.904,39.306 120.117 C 41.338 121.673,44.733 124.308,46.851 125.973 C 48.968 127.638,55.268 132.537,60.851 136.859 C 66.433 141.182,76.938 149.327,84.196 154.959 C 98.031 165.696,98.000 165.674,98.000 164.400 C 98.000 163.960,98.163 163.600,98.363 163.600 C 98.563 163.600,98.957 162.700,99.239 161.600 C 99.521 160.500,99.869 159.600,100.012 159.600 C 100.156 159.600,100.492 158.871,100.759 157.979 C 101.026 157.088,101.684 155.531,102.222 154.520 C 102.760 153.508,103.200 152.438,103.200 152.140 C 103.200 151.843,103.351 151.600,103.536 151.600 C 103.721 151.600,104.110 150.880,104.400 150.000 C 104.690 149.120,105.065 148.400,105.233 148.400 C 105.401 148.400,105.746 147.770,106.000 147.000 C 106.254 146.230,106.606 145.600,106.782 145.600 C 106.959 145.600,107.341 145.015,107.632 144.300 C 107.923 143.585,108.935 141.885,109.881 140.523 C 110.826 139.161,111.600 137.871,111.600 137.656 C 111.600 137.442,111.747 137.207,111.927 137.133 C 112.106 137.060,113.042 135.875,114.005 134.500 C 114.969 133.125,115.902 132.000,116.079 132.000 C 116.255 132.000,116.400 131.770,116.400 131.489 C 116.400 131.208,116.715 130.685,117.100 130.327 C 117.485 129.969,119.060 128.264,120.600 126.538 C 123.877 122.865,125.708 121.014,129.044 118.000 C 130.383 116.790,132.121 115.215,132.905 114.500 C 133.689 113.785,134.525 113.200,134.762 113.200 C 134.999 113.200,135.418 112.840,135.693 112.400 C 135.968 111.960,136.374 111.600,136.596 111.600 C 136.968 111.599,138.417 110.538,140.079 109.050 C 140.452 108.716,141.267 108.179,141.889 107.858 C 142.511 107.536,144.006 106.620,145.210 105.824 C 146.415 105.027,147.805 104.271,148.300 104.144 C 148.795 104.017,149.200 103.768,149.200 103.590 C 149.200 103.412,150.010 102.957,151.000 102.579 C 151.990 102.201,152.800 101.765,152.800 101.610 C 152.800 101.455,153.520 101.090,154.400 100.800 C 155.280 100.510,156.000 100.160,156.000 100.023 C 156.000 99.887,156.810 99.535,157.800 99.243 C 158.790 98.951,159.600 98.574,159.600 98.406 C 159.600 98.238,160.095 98.001,160.700 97.879 C 161.305 97.758,162.340 97.436,163.000 97.165 C 163.660 96.893,164.335 96.700,164.500 96.735 C 164.665 96.771,164.800 96.645,164.800 96.455 C 164.800 96.265,165.880 95.880,167.200 95.600 C 168.520 95.320,169.600 94.959,169.600 94.797 C 169.600 94.636,170.705 94.287,172.055 94.021 C 173.405 93.755,174.800 93.380,175.155 93.186 C 175.701 92.888,179.123 92.215,184.200 91.408 C 190.581 90.393,205.553 90.088,211.800 90.845 C 213.560 91.058,215.540 91.287,216.200 91.354 C 216.860 91.421,217.670 91.579,218.000 91.706 C 218.330 91.832,220.085 92.152,221.900 92.417 C 223.715 92.681,225.200 93.027,225.200 93.185 C 225.200 93.343,226.477 93.700,228.037 93.979 C 229.597 94.258,231.352 94.735,231.937 95.040 C 232.522 95.346,233.270 95.597,233.600 95.600 C 233.930 95.603,234.720 95.876,235.355 96.207 C 235.990 96.539,237.475 97.090,238.655 97.433 C 239.835 97.776,240.800 98.224,240.800 98.428 C 240.800 98.633,241.008 98.800,241.261 98.800 C 241.738 98.800,245.737 100.539,246.800 101.208 C 247.130 101.416,248.197 101.968,249.171 102.435 C 250.145 102.902,251.192 103.535,251.499 103.842 C 251.805 104.148,252.493 104.509,253.028 104.643 C 253.563 104.777,254.000 105.053,254.000 105.256 C 254.000 105.459,254.315 105.739,254.700 105.879 C 255.682 106.235,259.365 108.772,260.829 110.100 C 261.253 110.485,261.770 110.800,261.977 110.800 C 262.185 110.800,262.590 111.129,262.877 111.532 C 263.165 111.935,263.937 112.610,264.593 113.032 C 265.250 113.454,266.452 114.430,267.265 115.200 C 269.250 117.081,269.907 117.601,270.283 117.593 C 271.233 117.574,323.268 64.846,323.029 64.145 C 322.889 63.735,321.219 62.140,319.317 60.600 C 317.415 59.060,315.306 57.300,314.630 56.689 C 312.551 54.810,312.309 54.615,308.600 51.839 C 306.620 50.357,304.717 48.916,304.370 48.636 C 304.024 48.357,303.134 47.785,302.392 47.364 C 301.072 46.616,299.967 45.825,299.055 44.975 C 298.805 44.742,298.015 44.293,297.300 43.978 C 296.585 43.663,296.000 43.277,296.000 43.121 C 296.000 42.965,295.325 42.521,294.500 42.134 C 293.675 41.747,292.762 41.199,292.471 40.915 C 292.181 40.632,291.789 40.400,291.600 40.400 C 291.411 40.400,291.015 40.175,290.718 39.900 C 290.422 39.625,288.744 38.680,286.990 37.800 C 285.235 36.920,283.710 36.090,283.600 35.956 C 283.490 35.822,282.725 35.471,281.900 35.176 C 281.075 34.881,280.400 34.509,280.400 34.351 C 280.400 34.192,279.730 33.841,278.911 33.571 C 278.092 33.300,277.186 32.843,276.898 32.555 C 276.610 32.267,275.750 31.914,274.987 31.771 C 274.224 31.628,273.600 31.356,273.600 31.167 C 273.600 30.977,272.640 30.543,271.467 30.202 C 270.294 29.861,268.636 29.226,267.783 28.791 C 266.929 28.356,265.954 27.994,265.615 27.987 C 265.277 27.980,264.668 27.723,264.263 27.416 C 263.858 27.109,262.823 26.739,261.963 26.594 C 261.103 26.449,260.400 26.185,260.400 26.008 C 260.400 25.831,259.095 25.372,257.500 24.988 C 255.905 24.605,254.420 24.155,254.200 23.990 C 253.980 23.824,252.720 23.455,251.400 23.169 C 250.080 22.883,248.910 22.536,248.800 22.397 C 248.690 22.258,247.250 21.911,245.600 21.626 C 243.950 21.340,242.402 20.948,242.159 20.753 C 241.916 20.559,239.576 20.091,236.959 19.714 C 234.342 19.337,232.108 18.901,231.996 18.745 C 231.883 18.589,229.228 18.233,226.096 17.952 C 222.963 17.672,220.400 17.328,220.400 17.188 C 220.400 16.747,189.646 16.305,183.600 16.660 " stroke="none" fill="#ec4434" fill-rule="evenodd"></path><path id="path4" d="M373.600 171.600 C 373.600 172.347,373.707 172.453,374.080 172.080 C 374.453 171.707,374.453 171.493,374.080 171.120 C 373.707 170.747,373.600 170.853,373.600 171.600 M369.020 259.300 C 368.667 260.437,368.520 262.037,368.797 261.730 C 369.160 261.327,369.660 258.800,369.377 258.800 C 369.266 258.800,369.105 259.025,369.020 259.300 M273.771 282.191 C 273.094 282.703,273.083 282.776,273.676 282.787 C 274.048 282.794,274.471 282.608,274.616 282.373 C 275.052 281.668,274.593 281.570,273.771 282.191 M261.849 292.511 C 262.042 292.852,265.980 296.060,270.600 299.640 C 275.220 303.220,281.096 307.781,283.658 309.775 C 313.860 333.283,321.411 339.089,321.583 338.933 C 321.750 338.782,320.666 337.798,318.600 336.225 C 318.160 335.890,316.705 334.757,315.367 333.708 C 314.028 332.659,312.433 331.440,311.820 331.000 C 311.208 330.560,310.323 329.890,309.854 329.511 C 308.485 328.407,305.477 326.032,304.504 325.286 C 304.011 324.909,303.180 324.240,302.656 323.800 C 302.132 323.360,301.201 322.640,300.587 322.200 C 299.584 321.481,298.510 320.666,295.704 318.494 C 295.211 318.112,294.379 317.440,293.854 317.000 C 293.330 316.560,288.807 313.050,283.804 309.200 C 278.801 305.350,273.315 301.120,271.612 299.800 C 269.910 298.480,267.917 296.950,267.183 296.400 C 266.450 295.850,265.574 295.085,265.236 294.700 C 264.898 294.315,264.402 294.000,264.134 294.000 C 263.865 294.000,263.410 293.674,263.123 293.276 C 262.409 292.287,261.370 291.662,261.849 292.511 " stroke="none" fill="#3c87eb" fill-rule="evenodd"></path></g></svg>